<svg width="512" height="512" viewBox="0 0 512 512" xmlns="http://www.w3.org/2000/svg">
  <!-- Transparent background: content scaled to 80% and centered so it sits
       inside the safe zone of an Android adaptive icon foreground layer. -->
  <g transform="translate(256,256) scale(0.8)">
    <circle cx="0" cy="0" r="200" fill="none" stroke="#d4af37" stroke-width="7.5"/>

    <path d="M0,-80 L76,-25 L47,65 L-47,65 L-76,-25 Z" fill="#dc143c" stroke="#8b0000" stroke-width="3"/>
    <path d="M0,-80 L76,-25 L25,-15 Z" fill="#ff6b6b" stroke="#8b0000" stroke-width="2"/>
    <path d="M76,-25 L47,65 L25,-15 Z" fill="#e74c3c" stroke="#8b0000" stroke-width="2"/>
    <path d="M47,65 L-47,65 L25,-15 Z" fill="#dc143c" stroke="#8b0000" stroke-width="2"/>
    <path d="M-47,65 L-76,-25 L25,-15 Z" fill="#ff6b6b" stroke="#8b0000" stroke-width="2"/>
    <path d="M-76,-25 L0,-80 L25,-15 Z" fill="#e74c3c" stroke="#8b0000" stroke-width="2"/>

    <text x="0" y="24" font-family="Arial Black, sans-serif" font-size="48" font-weight="bold" text-anchor="middle" fill="#ffffff" stroke="#000000" stroke-width="2">20</text>

    <g fill="#ffd700" opacity="0.8">
      <circle cx="-136" cy="-106" r="4"/>
      <circle cx="144" cy="-76" r="3"/>
      <circle cx="-156" cy="94" r="3"/>
      <circle cx="164" cy="64" r="4"/>
      <circle cx="-76" cy="-156" r="2"/>
      <circle cx="94" cy="144" r="2"/>
    </g>
  </g>
</svg>
